<?xml version="1.0" encoding="UTF-8" standalone="no"?>
<!-- Created with Inkscape (http://www.inkscape.org/) -->

<svg
   xmlns:dc="http://purl.org/dc/elements/1.1/"
   xmlns:cc="http://creativecommons.org/ns#"
   xmlns:rdf="http://www.w3.org/1999/02/22-rdf-syntax-ns#"
   xmlns:svg="http://www.w3.org/2000/svg"
   xmlns="http://www.w3.org/2000/svg"
   xmlns:sodipodi="http://sodipodi.sourceforge.net/DTD/sodipodi-0.dtd"
   xmlns:inkscape="http://www.inkscape.org/namespaces/inkscape"
   width="72.047356mm"
   height="41.59301mm"
   viewBox="0 0 255.28591 147.3768"
   id="svg4442"
   version="1.1"
   inkscape:version="0.91 r13725"
   sodipodi:docname="pat.svg">
  <defs
     id="defs4444" />
  <sodipodi:namedview
     id="base"
     pagecolor="#ffffff"
     bordercolor="#666666"
     borderopacity="1.0"
     inkscape:pageopacity="0.0"
     inkscape:pageshadow="2"
     inkscape:zoom="1.4"
     inkscape:cx="89.248407"
     inkscape:cy="-48.957281"
     inkscape:document-units="px"
     inkscape:current-layer="layer1"
     showgrid="false"
     inkscape:window-width="1855"
     inkscape:window-height="1056"
     inkscape:window-x="1985"
     inkscape:window-y="24"
     inkscape:window-maximized="1"
     fit-margin-top="0"
     fit-margin-left="-0.5"
     fit-margin-right="0"
     fit-margin-bottom="0" />
  <metadata
     id="metadata4447">
    <rdf:RDF>
      <cc:Work
         rdf:about="">
        <dc:format>image/svg+xml</dc:format>
        <dc:type
           rdf:resource="http://purl.org/dc/dcmitype/StillImage" />
        <dc:title />
      </cc:Work>
    </rdf:RDF>
  </metadata>
  <g
     inkscape:label="Layer 1"
     inkscape:groupmode="layer"
     id="layer1"
     transform="translate(-81.468054,-503.84726)">
    <path
       style="opacity:0.9;fill:#99cc33;fill-opacity:0.82745098;stroke:none;stroke-width:1;stroke-linejoin:miter;stroke-miterlimit:4;stroke-dasharray:none;stroke-opacity:0.82745098"
       d="m 166.17955,504.07313 c -0.45618,15.48551 -0.15668,31.01154 -0.24693,46.51228 4.66927,-2.11385 9.2495,-5.22346 13.87146,-7.7238 8.72524,-5.1314 17.69987,-10.03663 26.24573,-15.36004 -3.07195,-2.69497 -6.98873,-4.42638 -10.44036,-6.64266 -9.74204,-5.65207 -19.47212,-11.33 -29.30644,-16.81786 l -0.12346,0.0321 z"
       id="path5007"
       inkscape:connector-curvature="0" />
    <path
       style="opacity:0.9;fill:#99cc33;fill-opacity:0.82745098;stroke:none;stroke-width:1;stroke-linejoin:miter;stroke-miterlimit:4;stroke-dasharray:none;stroke-opacity:0.82745098"
       d="m 187.23214,490.76956 c -6.56585,3.94445 -13.43517,7.50905 -19.68819,11.90918 3.33922,2.70057 7.42847,4.63816 11.08905,6.9671 9.38361,5.50297 18.82849,10.90088 28.242,16.35252 0.4058,-7.4353 0.19105,-15.24503 0.28247,-22.82575 0.0103,-7.88459 -0.0685,-15.76882 -0.1325,-23.65305 -6.59637,3.40553 -13.19643,7.55751 -19.79283,11.25 z"
       id="path5009"
       inkscape:connector-curvature="0" />
    <path
       style="opacity:0.9;fill:#99cc33;fill-opacity:0.82745098;stroke:none;stroke-width:1;stroke-linejoin:miter;stroke-miterlimit:4;stroke-dasharray:none;stroke-opacity:0.82745098"
       d="m 206.75014,430.49055 c -13.28863,7.4074 -26.45021,15.07522 -39.4308,23.0092 0.69656,1.09489 2.58063,1.63116 3.6635,2.50731 11.84871,7.05479 23.78639,13.97049 35.81683,20.70838 0.54088,-1.93953 0.1347,-4.42114 0.32057,-6.53435 0.0475,-13.22105 0.28265,-26.48129 -0.21036,-39.67938 l -0.10393,-0.0286 -0.0558,0.0174 z"
       id="path5011"
       inkscape:connector-curvature="0" />
    <path
       style="opacity:0.9;fill:#99cc33;fill-opacity:0.82745098;stroke:none;stroke-width:1;stroke-linejoin:miter;stroke-miterlimit:4;stroke-dasharray:none;stroke-opacity:0.82745098"
       d="m 166.19978,405.85397 c -0.49495,15.48294 -0.16869,31.01556 -0.26716,46.51715 4.63674,-2.1197 9.19349,-5.22038 13.7898,-7.7137 8.81511,-5.17353 17.8199,-10.16853 26.4934,-15.49779 -11.85195,-7.4713 -24.12844,-14.35606 -36.27273,-21.37654 -1.24441,-0.57153 -2.44357,-1.58766 -3.74331,-1.92912 z"
       id="path5013"
       inkscape:connector-curvature="0" />
    <path
       style="opacity:0.9;fill:#99cc33;fill-opacity:0.82745098;stroke:none;stroke-width:1;stroke-linejoin:miter;stroke-miterlimit:4;stroke-dasharray:none;stroke-opacity:0.82745098"
       d="m 249.02413,455.2485 c -13.24552,7.29128 -26.30663,14.95857 -39.26687,22.7539 -0.14791,0.75186 1.58308,1.07133 2.09922,1.63008 12.4393,7.33868 24.92546,14.73867 37.54642,21.68326 0.51277,-13.65408 0.25478,-27.38305 0.24383,-41.06505 -0.24843,-1.58832 0.35931,-3.65127 -0.54028,-5.00429 l -0.0314,-0.002 -0.0509,0.004 z"
       id="path5015"
       inkscape:connector-curvature="0" />
    <path
       style="opacity:0.9;fill:#99cc33;fill-opacity:0.82745098;stroke:none;stroke-width:1;stroke-linejoin:miter;stroke-miterlimit:4;stroke-dasharray:none;stroke-opacity:0.82745098"
       d="m 251.27581,454.8209 c -0.56844,10.96587 -0.24702,22.04811 -0.3351,33.05664 0.16475,4.39078 -0.29074,8.87875 0.39718,13.21638 1.11517,0.28579 2.28466,-1.27766 3.39433,-1.58145 11.89554,-6.91128 24.01173,-13.47673 35.62981,-20.8474 0.52867,-0.25547 1.15019,-1.00465 0.14369,-1.19838 -13.03265,-7.60813 -26.06062,-15.32918 -39.22991,-22.64579 z"
       id="path5017"
       inkscape:connector-curvature="0" />
    <path
       style="opacity:0.9;fill:#ffcc00;fill-opacity:0.82745098;stroke:none;stroke-width:1;stroke-linejoin:miter;stroke-miterlimit:4;stroke-dasharray:none;stroke-opacity:0.82745098"
       d="m 165.93262,454.8209 c 0.0972,15.50161 -0.22483,31.03418 0.26367,46.51716 6.40188,-3.15293 12.55695,-7.10726 18.82413,-10.62782 7.0656,-4.21447 14.31772,-8.19753 21.19331,-12.68482 -13.05573,-7.85462 -26.39589,-15.43607 -39.64634,-23.03328 -0.20828,0.0636 -0.43278,-0.46364 -0.63477,-0.17124 z"
       id="path5019"
       inkscape:connector-curvature="0" />
    <path
       style="opacity:0.9;fill:#ffcc00;fill-opacity:0.82745098;stroke:none;stroke-width:1;stroke-linejoin:miter;stroke-miterlimit:4;stroke-dasharray:none;stroke-opacity:0.82745098"
       d="m 162.83203,455.73469 c -12.73901,7.43248 -25.6839,14.54905 -38.18568,22.36607 1.84674,1.6849 4.60697,2.80682 6.77107,4.26991 10.95576,6.36561 21.89134,12.92709 32.98897,18.95344 0.55316,-15.46597 0.18562,-31.00099 0.29716,-46.49274 -0.57493,-0.0835 -1.28595,0.69009 -1.87152,0.90332 z"
       id="path5021"
       inkscape:connector-curvature="0" />
    <path
       style="opacity:0.9;fill:#ffcc00;fill-opacity:0.82745098;stroke:none;stroke-width:1;stroke-linejoin:miter;stroke-miterlimit:4;stroke-dasharray:none;stroke-opacity:0.82745098"
       d="m 121.54646,430.59727 c -13.25715,7.28669 -26.320085,14.96601 -39.254771,22.81706 -0.338171,0.67469 1.390115,0.99798 1.782537,1.48571 12.471816,7.44947 25.050224,14.73248 37.726834,21.82446 0.53662,-1.94833 0.13496,-4.42755 0.31911,-6.54621 0.0243,-12.92344 0.3117,-25.86257 -0.15379,-38.77745 -0.0641,-0.25164 -0.0385,-0.81476 -0.41992,-0.80357 z"
       id="path5023"
       inkscape:connector-curvature="0" />
    <path
       style="opacity:0.9;fill:#ffcc00;fill-opacity:0.82745098;stroke:none;stroke-width:1;stroke-linejoin:miter;stroke-miterlimit:4;stroke-dasharray:none;stroke-opacity:0.82745098"
       d="m 81.141881,405.88536 c -0.305938,15.40914 -0.320817,30.8446 0.03209,46.25627 1.187538,0.0406 2.860948,-1.61594 4.198402,-2.14445 11.919837,-6.96247 24.071437,-13.69684 35.826007,-20.84104 -12.71826,-7.9014 -25.779434,-15.32643 -38.794637,-22.756 -0.402761,-0.0897 -0.841314,-0.67406 -1.261859,-0.51478 z"
       id="path5025"
       inkscape:connector-curvature="0" />
    <path
       style="opacity:0.9;fill:#ffcc00;fill-opacity:0.82745098;stroke:none;stroke-width:1;stroke-linejoin:miter;stroke-miterlimit:4;stroke-dasharray:none;stroke-opacity:0.82745098"
       d="m 121.07561,479.89275 c -13.06746,7.38345 -26.071834,14.9102 -38.866485,22.75112 1.854591,1.70794 4.550794,2.8366 6.713308,4.29763 10.94117,6.40618 21.897237,12.96407 32.987447,19.00803 0.54302,-15.4652 0.18598,-30.99081 0.29367,-46.4788 -0.32572,-0.25716 -0.78057,0.38948 -1.12794,0.42202 z"
       id="path5027"
       inkscape:connector-curvature="0" />
    <path
       style="opacity:0.9;fill:#ffcc00;fill-opacity:0.82745098;stroke:none;stroke-width:1;stroke-linejoin:miter;stroke-miterlimit:4;stroke-dasharray:none;stroke-opacity:0.82745098"
       d="m 81.342077,504.09685 c -0.608044,5.42089 -0.245865,11.05704 -0.398546,16.55411 0.106789,9.75474 -0.278778,19.53661 0.2695,29.27527 0.416463,1.32084 1.984637,-0.87733 2.723214,-0.85309 12.416712,-7.21552 25.006495,-14.28655 37.256555,-21.69504 -12.83118,-7.95177 -25.983343,-15.46429 -39.110628,-22.94503 -0.248071,-0.0766 -0.47282,-0.31635 -0.740095,-0.33622 z"
       id="path5029"
       inkscape:connector-curvature="0" />
    <path
       style="opacity:0.9;fill:#ff9900;fill-opacity:0.82745098;stroke:none;stroke-width:1;stroke-linejoin:miter;stroke-miterlimit:4;stroke-dasharray:none;stroke-opacity:0.82745098"
       d="m 123.57213,479.46655 c -0.15785,15.43179 -0.32104,30.88344 0.14578,46.31069 0.94996,0.19714 2.3456,-1.30745 3.4189,-1.66697 11.98126,-7.01576 24.24876,-13.57952 35.93239,-21.08206 1.33156,-0.77093 -1.05333,-1.26266 -1.4195,-1.73549 -12.61045,-7.3623 -25.21917,-14.73686 -37.94364,-21.89732 l -0.13393,0.0711 z"
       id="path5031"
       inkscape:connector-curvature="0" />
    <path
       style="opacity:0.9;fill:#ff9900;fill-opacity:0.82745098;stroke:none;stroke-width:1;stroke-linejoin:miter;stroke-miterlimit:4;stroke-dasharray:none;stroke-opacity:0.82745098"
       d="m 164.41546,504.14917 c -13.39086,7.42864 -26.67739,15.08801 -39.77958,23.0113 1.63997,1.57666 4.15993,2.57682 6.1082,3.91783 11.15108,6.59884 22.41716,13.00341 33.63092,19.49595 0.37863,-7.35451 0.11003,-15.08613 0.23982,-22.58562 0.002,-7.92219 0.10455,-15.84841 -0.0438,-23.76831 l -0.11858,-0.0788 -0.037,0.008 z"
       id="path5033"
       inkscape:connector-curvature="0" />
    <path
       style="opacity:0.9;fill:#ff9900;fill-opacity:0.82745098;stroke:none;stroke-width:1;stroke-linejoin:miter;stroke-miterlimit:4;stroke-dasharray:none;stroke-opacity:0.82745098"
       d="m 123.43262,430.12085 c 0,15.65011 0,31.30022 0,46.95033 7.30205,-3.98027 14.73842,-8.50684 22.10174,-12.66827 6.05559,-3.54994 12.25234,-6.95162 18.20309,-10.62763 -6.91834,-4.69359 -14.42264,-8.65369 -21.63162,-12.94662 -6.22019,-3.50264 -12.51118,-7.39504 -18.67321,-10.70781 z"
       id="path5035"
       inkscape:connector-curvature="0" />
    <path
       style="opacity:0.9;fill:#ff9900;fill-opacity:0.82745098;stroke:none;stroke-width:1;stroke-linejoin:miter;stroke-miterlimit:4;stroke-dasharray:none;stroke-opacity:0.82745098"
       d="m 164.42383,405.91814 c -13.39294,7.39178 -26.64861,15.06913 -39.7447,22.97642 0.53339,1.03256 2.3867,1.51388 3.34333,2.3305 12.02492,7.19637 24.22705,14.09304 36.35254,21.11886 0.37864,-7.35451 0.11005,-15.08613 0.23986,-22.58562 -6e-5,-7.91985 0.10638,-15.84391 -0.0529,-23.76134 -0.019,-0.0731 -0.0832,-0.091 -0.13811,-0.0788 z"
       id="path5037"
       inkscape:connector-curvature="0" />
    <path
       style="opacity:0.9;fill:#ff9900;fill-opacity:0.82745098;stroke:none;stroke-width:1;stroke-linejoin:miter;stroke-miterlimit:4;stroke-dasharray:none;stroke-opacity:0.82745098"
       d="m 206.75014,528.71111 c -13.28735,7.44057 -26.47623,15.09319 -39.47893,23.01618 1.71854,1.649 4.32386,2.70078 6.36268,4.09717 10.98835,6.48282 22.02448,12.89561 33.16578,19.11014 0.54069,-1.94183 0.13481,-4.42259 0.32056,-6.53714 0.0474,-13.2201 0.28277,-26.47945 -0.21035,-39.67659 l -0.10603,-0.0279 -0.0537,0.0181 z"
       id="path5039"
       inkscape:connector-curvature="0" />
    <path
       style="opacity:0.9;fill:#ff9900;fill-opacity:0.82745098;stroke:none;stroke-width:1;stroke-linejoin:miter;stroke-miterlimit:4;stroke-dasharray:none;stroke-opacity:0.82745098"
       d="m 208.43262,528.33513 c 0.0906,15.59301 -0.21609,31.20209 0.26716,46.78502 8.22988,-4.4165 16.4708,-9.44445 24.70022,-14.10537 5.06361,-3.0459 10.49604,-5.84208 15.32838,-9.07264 -11.9566,-7.70173 -24.54197,-14.43165 -36.78384,-21.6848 -1.17227,-0.57061 -2.37015,-1.57477 -3.51192,-1.92221 z"
       id="path5041"
       inkscape:connector-curvature="0" />
    <path
       style="opacity:0.9;fill:#ff9900;fill-opacity:0.82745098;stroke:none;stroke-width:1;stroke-linejoin:miter;stroke-miterlimit:4;stroke-dasharray:none;stroke-opacity:0.82745098"
       d="m 163.03572,553.83876 c -12.7743,7.53343 -25.84903,14.59125 -38.38798,22.50349 2.29206,1.9304 5.41796,3.2951 8.00932,4.99412 10.54786,6.10665 21.06844,12.43532 31.75282,18.20272 0.54475,-15.47793 0.18471,-31.01804 0.29367,-46.51925 -0.49953,-0.12864 -1.15808,0.64531 -1.66783,0.81892 z"
       id="path5043"
       inkscape:connector-curvature="0" />
    <path
       style="opacity:0.9;fill:#ff9900;fill-opacity:0.82745098;stroke:none;stroke-width:1;stroke-linejoin:miter;stroke-miterlimit:4;stroke-dasharray:none;stroke-opacity:0.82745098"
       d="m 123.76814,577.67805 c -0.5507,10.89773 -0.2562,21.90959 -0.31181,32.84947 0.14773,4.52583 -0.16713,9.18742 0.37459,13.63909 12.90803,-7.34671 25.9263,-14.60002 38.56258,-22.43235 0.45561,-0.30453 1.84725,-1.07955 0.57943,-1.43205 C 149.94696,592.704 136.92601,584.993 123.76814,577.67805 Z"
       id="path5045"
       inkscape:connector-curvature="0" />
    <path
       style="opacity:0.9;fill:#ff9900;fill-opacity:0.82745098;stroke:none;stroke-width:1;stroke-linejoin:miter;stroke-miterlimit:4;stroke-dasharray:none;stroke-opacity:0.82745098"
       d="m 124.00391,627.02514 c -0.88014,1.72766 -0.27211,4.05819 -0.52128,5.98275 -0.0946,13.48909 -0.0311,26.9788 -0.05,40.46815 6.63872,-3.50837 13.3445,-7.67043 20.01368,-11.41435 6.73682,-3.9646 13.67953,-7.73446 20.27301,-11.85435 -12.22719,-7.6652 -24.84833,-14.78932 -37.37375,-21.99219 -0.78139,-0.36421 -1.51286,-0.96051 -2.34165,-1.19001 z"
       id="path5047"
       inkscape:connector-curvature="0" />
    <path
       style="opacity:0.9;fill:#ff9900;fill-opacity:0.82745098;stroke:none;stroke-width:1;stroke-linejoin:miter;stroke-miterlimit:4;stroke-dasharray:none;stroke-opacity:0.82745098"
       d="m 164.02413,651.67707 c -13.1546,7.20383 -26.08303,14.85691 -38.94042,22.58719 -1.25434,0.63541 1.12856,1.20503 1.48662,1.67604 12.47885,7.44267 25.0565,14.72727 37.72375,21.84168 0.5414,-1.68373 0.13325,-3.95105 0.31604,-5.82293 0.0456,-13.12397 0.30579,-26.26195 -0.1256,-39.37866 -0.0722,-0.28352 -0.0249,-0.91891 -0.46039,-0.90332 z"
       id="path5049"
       inkscape:connector-curvature="0" />
    <path
       style="opacity:0.9;fill:#ff9900;fill-opacity:0.82745098;stroke:none;stroke-width:1;stroke-linejoin:miter;stroke-miterlimit:4;stroke-dasharray:none;stroke-opacity:0.82745098"
       d="m 251.49693,504.17777 c -0.891,1.83855 -0.2673,4.25776 -0.52176,6.28487 -0.0424,13.37188 -0.12169,26.74886 0.0949,40.11789 3.10297,-1.29756 6.13732,-3.45639 9.2028,-5.0727 10.25756,-5.98847 20.71964,-11.77554 30.79442,-17.99092 -2.1616,-2.22404 -5.31277,-3.44897 -7.88993,-5.1974 -10.52898,-6.08254 -21.01874,-12.35668 -31.68039,-18.14174 z"
       id="path5051"
       inkscape:connector-curvature="0" />
    <path
       style="opacity:0.9;fill:#ff9900;fill-opacity:0.82745098;stroke:none;stroke-width:1;stroke-linejoin:miter;stroke-miterlimit:4;stroke-dasharray:none;stroke-opacity:0.82745098"
       d="m 292.1024,479.42609 c -13.31631,7.38254 -26.45163,15.12009 -39.41406,23.10896 -0.36158,0.69965 1.36958,1.03873 1.75059,1.53335 12.40867,7.58196 25.04367,14.79518 37.7123,21.92926 0.52987,-1.57821 0.14112,-3.72177 0.31088,-5.49024 0.0666,-13.68499 0.30532,-27.41389 -0.19857,-41.07365 l -0.0984,-0.0258 -0.0628,0.0181 z"
       id="path5053"
       inkscape:connector-curvature="0" />
    <path
       style="opacity:0.9;fill:#ff9900;fill-opacity:0.82745098;stroke:none;stroke-width:1;stroke-linejoin:miter;stroke-miterlimit:4;stroke-dasharray:none;stroke-opacity:0.82745098"
       d="m 250.93262,553.03519 c 0,15.63104 0,31.26209 0,46.89313 7.29578,-3.97918 14.72317,-8.51068 22.07841,-12.67441 5.97479,-3.62185 12.28649,-6.76753 17.94879,-10.86493 0.3723,-0.84954 -1.56477,-1.00781 -1.94718,-1.58154 -12.61593,-7.33502 -25.20075,-14.73287 -37.93354,-21.86084 l -0.14648,0.0886 z"
       id="path5055"
       inkscape:connector-curvature="0" />
    <path
       style="opacity:0.9;fill:#ff9900;fill-opacity:0.82745098;stroke:none;stroke-width:1;stroke-linejoin:miter;stroke-miterlimit:4;stroke-dasharray:none;stroke-opacity:0.82745098"
       d="m 291.99777,577.70595 c -13.27583,7.37962 -26.37027,15.11621 -39.31292,23.06919 -0.3438,0.69619 1.37061,1.03226 1.75408,1.52638 12.41219,7.57622 25.04438,14.79578 37.71927,21.9181 0.53534,-1.95802 0.1369,-4.44497 0.31885,-6.57412 0.0281,-13.11783 0.31547,-26.25218 -0.1905,-39.36059 -0.0548,-0.17173 -0.0153,-0.59145 -0.28878,-0.57896 z"
       id="path5057"
       inkscape:connector-curvature="0" />
    <path
       style="opacity:0.9;fill:#ffcc00;fill-opacity:0.82745098;stroke:none;stroke-width:1;stroke-linejoin:miter;stroke-miterlimit:4;stroke-dasharray:none;stroke-opacity:0.82745098"
       d="m 208.82115,479.45748 c -0.58838,6.69424 -0.25004,13.56317 -0.38491,20.32017 0.10128,8.70538 -0.21598,17.45855 0.35352,26.13561 7.38762,-3.8255 14.64035,-8.34777 21.95408,-12.47042 6.06786,-3.54756 12.18766,-7.0136 18.1931,-10.66365 -2.44183,-1.91847 -5.61724,-3.34517 -8.32313,-5.07094 -10.58348,-6.09689 -21.10575,-12.37694 -31.79266,-18.25077 z"
       id="path5059"
       inkscape:connector-curvature="0" />
    <path
       style="opacity:0.9;fill:#ffcc00;fill-opacity:0.82745098;stroke:none;stroke-width:1;stroke-linejoin:miter;stroke-miterlimit:4;stroke-dasharray:none;stroke-opacity:0.82745098"
       d="m 249.42801,504.16382 c -13.38426,7.45158 -26.67014,15.11486 -39.79073,23.01897 1.63879,1.56765 4.16938,2.55939 6.11688,3.89778 11.15529,6.57384 22.41057,12.97651 33.62084,19.45601 0.37865,-7.3545 0.11008,-15.08612 0.2399,-22.58561 0.001,-7.9044 0.10172,-15.81203 -0.0299,-23.71461 l -0.12067,-0.0809 -0.0363,0.008 z"
       id="path5061"
       inkscape:connector-curvature="0" />
    <path
       style="opacity:0.9;fill:#ffcc00;fill-opacity:0.82745098;stroke:none;stroke-width:1;stroke-linejoin:miter;stroke-miterlimit:4;stroke-dasharray:none;stroke-opacity:0.82745098"
       d="m 249.25084,553.33862 c -13.25703,7.35111 -26.34688,15.03094 -39.27874,22.94155 -0.27784,0.677 1.3801,0.98758 1.78605,1.47461 12.40426,7.44473 24.93958,14.68047 37.53454,21.79687 0.53852,-1.55473 0.13122,-3.70349 0.31245,-5.44978 0.0694,-13.57797 0.29997,-27.19549 -0.19526,-40.75069 l -0.10184,-0.0293 -0.0572,0.0167 z"
       id="path5063"
       inkscape:connector-curvature="0" />
    <path
       style="opacity:0.9;fill:#ffcc00;fill-opacity:0.82745098;stroke:none;stroke-width:1;stroke-linejoin:miter;stroke-miterlimit:4;stroke-dasharray:none;stroke-opacity:0.82745098"
       d="m 208.79604,577.67735 c -0.5699,8.74847 -0.25622,17.62837 -0.36054,26.42438 0.0533,6.6865 -0.051,13.38567 0.21336,20.06418 4.19188,-1.92174 8.26299,-4.65795 12.39375,-6.89523 9.30926,-5.40707 18.68732,-10.70848 27.89712,-16.2793 -2.6619,-2.03342 -6.02854,-3.5801 -8.94503,-5.42262 -10.38729,-5.97005 -20.71223,-12.15186 -31.19866,-17.89141 z"
       id="path5065"
       inkscape:connector-curvature="0" />
    <path
       style="opacity:0.9;fill:#ffcc00;fill-opacity:0.82745098;stroke:none;stroke-width:1;stroke-linejoin:miter;stroke-miterlimit:4;stroke-dasharray:none;stroke-opacity:0.82745098"
       d="m 166.14188,602.31393 c -0.29708,15.42684 -0.34171,30.88179 0.0572,46.30998 0.69167,0.34076 1.85682,-0.96332 2.69696,-1.23294 12.39107,-7.17721 24.92421,-14.22487 37.14539,-21.63047 -2.33334,-2.28244 -5.60924,-3.61228 -8.33984,-5.43876 -10.43554,-6.08752 -20.88574,-12.15531 -31.42159,-18.06571 l -0.13812,0.0579 z"
       id="path5067"
       inkscape:connector-curvature="0" />
    <path
       style="opacity:0.9;fill:#ffcc00;fill-opacity:0.82745098;stroke:none;stroke-width:1;stroke-linejoin:miter;stroke-miterlimit:4;stroke-dasharray:none;stroke-opacity:0.82745098"
       d="m 164.42453,602.37252 c -13.42311,7.45717 -26.74412,15.13643 -39.89258,23.06571 2.59401,2.07147 5.94961,3.58448 8.81975,5.43038 10.31619,6.02625 20.68119,11.96838 31.0233,17.94992 0.37861,-7.35451 0.10999,-15.08613 0.23977,-22.58562 7.6e-4,-7.92855 0.10303,-15.86052 -0.0347,-23.78715 l -0.11858,-0.0809 -0.037,0.008 z"
       id="path5069"
       inkscape:connector-curvature="0" />
    <path
       style="opacity:0.9;fill:#ffcc00;fill-opacity:0.82745098;stroke:none;stroke-width:1;stroke-linejoin:miter;stroke-miterlimit:4;stroke-dasharray:none;stroke-opacity:0.82745098"
       d="m 120.86217,578.2312 c -13.02423,7.37519 -26.003167,14.86695 -38.745819,22.71135 3.116754,2.37727 6.937965,4.19823 10.328238,6.33339 9.800641,5.64099 19.558541,11.55531 29.468781,16.88857 0.53468,-15.4673 0.18501,-30.9899 0.29018,-46.47809 -0.4002,-0.19728 -0.92099,0.44645 -1.34138,0.54478 z"
       id="path5071"
       inkscape:connector-curvature="0" />
    <path
       style="opacity:0.9;fill:#ffcc00;fill-opacity:0.82745098;stroke:none;stroke-width:1;stroke-linejoin:miter;stroke-miterlimit:4;stroke-dasharray:none;stroke-opacity:0.82745098"
       d="m 80.932618,553.00171 c 0.08999,15.51192 -0.208884,31.04906 0.246931,46.54575 5.872226,-2.85585 11.517849,-6.51497 17.270372,-9.72409 7.588889,-4.50715 15.355849,-8.79286 22.758229,-13.56832 -13.20361,-7.97478 -26.81054,-15.47251 -40.124165,-23.33914 l -0.151367,0.0858 z"
       id="path5073"
       inkscape:connector-curvature="0" />
    <path
       style="opacity:0.9;fill:#ffcc00;fill-opacity:0.82745098;stroke:none;stroke-width:1;stroke-linejoin:miter;stroke-miterlimit:4;stroke-dasharray:none;stroke-opacity:0.82745098"
       d="m 121.90848,626.97143 c -13.36898,7.32136 -26.561516,14.99922 -39.61286,22.87668 -0.398437,0.68502 1.336237,1.00888 1.714674,1.49747 12.48346,7.58336 25.232396,14.72032 37.864706,22.05233 0.37865,-7.3545 0.11007,-15.08613 0.23989,-22.58562 -0.003,-7.92062 0.11102,-15.84677 -0.0711,-23.76413 -0.0198,-0.0711 -0.0816,-0.0869 -0.13533,-0.0767 z"
       id="path5075"
       inkscape:connector-curvature="0" />
    <path
       style="opacity:0.9;fill:#ffcc00;fill-opacity:0.82745098;stroke:none;stroke-width:1;stroke-linejoin:miter;stroke-miterlimit:4;stroke-dasharray:none;stroke-opacity:0.82745098"
       d="m 80.932618,651.19228 c 0.126289,15.2398 -0.269638,30.49474 0.249721,45.72544 -0.03881,1.62892 1.601797,-0.0621 2.225167,-0.25321 12.517885,-7.2077 25.168684,-14.28225 37.529994,-21.70549 -1.1588,-1.76644 -3.62384,-2.48417 -5.30365,-3.75448 -11.46173,-6.78916 -23.105042,-13.27596 -34.547772,-20.09667 l -0.15346,0.0844 z"
       id="path5077"
       inkscape:connector-curvature="0" />
    <path
       style="opacity:0.9;fill:#99cc33;fill-opacity:0.82745098;stroke:none;stroke-width:1;stroke-linejoin:miter;stroke-miterlimit:4;stroke-dasharray:none;stroke-opacity:0.82745098"
       d="m 166.49763,553.23678 c -0.89746,1.68624 -0.26551,4.0122 -0.52143,5.90598 0.0352,13.18113 -0.28235,26.3786 0.19777,39.55021 0.11231,1.73679 1.95283,-0.28086 2.71554,-0.44712 12.51529,-7.17179 25.05944,-14.32476 37.30748,-21.93778 -3.82439,-2.65705 -8.32977,-4.89813 -12.40298,-7.39387 -9.09902,-5.21335 -18.12758,-10.63502 -27.29638,-15.67742 z"
       id="path5080"
       inkscape:connector-curvature="0" />
    <path
       style="opacity:0.9;fill:#99cc33;fill-opacity:0.82745098;stroke:none;stroke-width:1;stroke-linejoin:miter;stroke-miterlimit:4;stroke-dasharray:none;stroke-opacity:0.82745098"
       d="m 186.96429,589.15963 c -6.6267,3.9172 -13.41873,7.61739 -19.86398,11.80804 6.30893,4.15242 13.14284,7.77203 19.68007,11.66477 6.69792,3.86406 13.39646,7.72703 20.09462,11.59067 0.4058,-7.43739 0.19104,-15.24921 0.28247,-22.83203 0.0103,-7.8797 -0.0685,-15.75906 -0.1325,-23.6384 -6.54622,3.37625 -13.09101,7.49898 -19.63669,11.16221 l -0.30931,0.17854 -0.11468,0.0662 z"
       id="path5082"
       inkscape:connector-curvature="0" />
    <path
       style="opacity:0.9;fill:#99cc33;fill-opacity:0.82745098;stroke:none;stroke-width:1;stroke-linejoin:miter;stroke-miterlimit:4;stroke-dasharray:none;stroke-opacity:0.82745098"
       d="m 124.02832,528.81993 c -0.91687,1.4446 -0.28446,3.60445 -0.5421,5.28243 -0.10384,13.72734 -0.0318,27.45546 -0.0536,41.18311 7.09499,-3.84611 14.31309,-8.26545 21.46425,-12.30361 6.29211,-3.72676 12.74955,-7.22402 18.8322,-11.27619 -4.82877,-3.22323 -10.2652,-6.00597 -15.32884,-9.04309 -8.1235,-4.60265 -16.16194,-9.43967 -24.37191,-13.84265 z"
       id="path5084"
       inkscape:connector-curvature="0" />
    <path
       style="opacity:0.9;fill:#99cc33;fill-opacity:0.82745098;stroke:none;stroke-width:1;stroke-linejoin:miter;stroke-miterlimit:4;stroke-dasharray:none;stroke-opacity:0.82745098"
       d="m 121.75293,528.70065 c -13.32212,7.45005 -26.548081,15.10866 -39.587053,23.0392 1.402104,1.48433 3.755584,2.35159 5.481777,3.58718 11.300184,6.67418 22.665446,13.25066 34.142946,19.61315 0.53654,-1.95224 0.14043,-4.42391 0.32598,-6.54061 0.0534,-13.22356 0.28557,-26.4864 -0.2067,-39.68707 l -0.10463,-0.0286 -0.0523,0.0168 z"
       id="path5086"
       inkscape:connector-curvature="0" />
    <path
       id="path5098"
       style="opacity:0;fill:none;fill-rule:evenodd;stroke:#000000;stroke-width:1px;stroke-linecap:butt;stroke-linejoin:miter;stroke-opacity:1"
       d="m 420.53572,1024.0779 0,-412.60855 0,-60 0,-396.25 m -42.5,21.42857 0,448.75 0,378.98208 M 122.94643,772.71935 732.7905,420.62571 m -397.07621,-222.54922 0,402.94643 0,407.05358 M 80.307127,748.43256 721.277,378.36843 m -428.20649,99.59578 0,532.96939 m -42.67895,-557.21305 0,544.09342 m -42.44513,-568.84462 0,590.53575 m -42.5,-615.00004 0,585 m -42.58663,-609.90445 0,529.90445 M 734.17237,732.86622 80.307127,355.35695 l 0,49.11867 621.076993,358.57897 m -71.76534,7.68493 -549.311653,-317.14523 0,49.11866 540.602403,312.11694 m -58.38714,15.40884 -482.215263,-278.40711 0,49.11867 492.482423,284.33486 m -71.89103,7.61235 -420.591393,-242.82855 0,49.11867 336.560933,194.31355 m -73.91255,6.44523 -262.648383,-151.64011 0,-49.11867 624.592323,-360.60855 m -3.31801,-47.20301 -621.274313,358.69289 0,-49.11866 591.478293,-341.49015 m -57.73009,-15.78819 -533.748203,308.15967 0,-49.11867 L 557.1746,227.39339 m -26.69117,-33.70851 -450.176303,259.90941 0,-49.11867 411.655003,-237.66913"
       inkscape:connector-curvature="0" />
    <path
       style="opacity:0.9;fill:#ffcc00;fill-opacity:0.82745098;stroke:none;stroke-width:1;stroke-linejoin:miter;stroke-miterlimit:4;stroke-dasharray:none;stroke-opacity:0.82745098"
       d="m 291.64636,529.03517 c -13.12931,7.14378 -26.08446,14.69046 -38.71232,22.68306 2.36909,2.36369 6.06155,3.85262 8.91484,5.82784 9.92106,5.78842 19.83836,11.78104 29.96716,17.09789 0.69893,-14.79035 0.45173,-29.68557 0.13909,-44.50788 -0.1687,-0.19963 0.17506,-1.16664 -0.30877,-1.10091 z"
       id="path5101"
       inkscape:connector-curvature="0" />
    <path
       style="opacity:0.9;fill:#ffcc00;fill-opacity:0.82745098;stroke:none;stroke-width:1;stroke-linejoin:miter;stroke-miterlimit:4;stroke-dasharray:none;stroke-opacity:0.82745098"
       d="m 293.54829,528.51234 c 0.0995,15.53378 -0.1974,31.29325 0.14797,46.687 13.41571,-7.57242 26.74504,-15.31406 39.92372,-23.28678 -6.28117,-4.37075 -13.43665,-8.00485 -20.07923,-12.02046 -6.66188,-3.73354 -13.33625,-7.92818 -19.99246,-11.37976 z"
       id="path5103"
       inkscape:connector-curvature="0" />
    <path
       style="opacity:0.9;fill:#ffcc00;fill-opacity:0.82745098;stroke:none;stroke-width:1;stroke-linejoin:miter;stroke-miterlimit:4;stroke-dasharray:none;stroke-opacity:0.82745098"
       d="m 208.89672,627.07028 c -0.26985,15.33395 -0.36383,30.70887 0.0819,46.03593 12.23822,-6.58162 24.41568,-13.74022 36.39312,-20.94074 0.79645,-0.81569 3.04643,-1.37725 2.9683,-2.62423 -13.16415,-7.4166 -26.2126,-15.37273 -39.4433,-22.47096 z"
       id="path5105"
       inkscape:connector-curvature="0" />
    <path
       style="opacity:0.9;fill:#ffcc00;fill-opacity:0.82745098;stroke:none;stroke-width:1;stroke-linejoin:miter;stroke-miterlimit:4;stroke-dasharray:none;stroke-opacity:0.82745098"
       d="m 249.43895,651.8713 c -13.16877,6.94548 -25.98875,14.61369 -38.62945,22.48773 -1.35157,0.87944 1.71021,1.51035 2.06385,2.1399 12.09307,7.25196 24.44181,14.51702 36.68004,21.23567 -0.0507,-15.26918 0.47703,-30.66467 -0.0483,-45.86132 l -0.0355,-0.004 -0.0306,0.002 z"
       id="path5107"
       inkscape:connector-curvature="0" />
    <path
       style="opacity:0.9;fill:#99cc33;fill-opacity:0.82745098;stroke:none;stroke-width:1;stroke-linejoin:miter;stroke-miterlimit:4;stroke-dasharray:none;stroke-opacity:0.82745098"
       d="m 247.76293,603.26856 c -12.51238,7.24214 -25.25664,14.20743 -37.28982,22.19771 5.36726,4.14634 11.72305,7.2834 17.55251,10.88058 7.10999,3.96712 14.17775,8.47641 21.3936,11.99977 0.70095,-15.32957 0.25352,-30.70979 0.3867,-46.05862 -0.61204,-0.0828 -1.41291,0.76316 -2.04299,0.98056 z"
       id="path5117"
       inkscape:connector-curvature="0" />
    <path
       style="opacity:0.9;fill:#99cc33;fill-opacity:0.82745098;stroke:none;stroke-width:1;stroke-linejoin:miter;stroke-miterlimit:4;stroke-dasharray:none;stroke-opacity:0.82745098"
       d="m 251.12188,602.25348 c 0.0995,15.53378 -0.1974,31.29325 0.14798,46.687 13.41504,-7.57227 26.74308,-15.31463 39.92371,-23.28283 -6.28655,-4.3652 -13.43628,-8.00391 -20.07908,-12.01875 -6.66175,-3.7358 -13.33768,-7.92957 -19.99261,-11.38542 z"
       id="path5119"
       inkscape:connector-curvature="0" />
    <path
       style="opacity:0.9;fill:#99cc33;fill-opacity:0.82745098;stroke:none;stroke-width:1;stroke-linejoin:miter;stroke-miterlimit:4;stroke-dasharray:none;stroke-opacity:0.82745098"
       d="m 294.31084,578.20711 c -1.26448,2.0882 -0.37793,5.12694 -0.72088,7.52868 0.005,12.7895 -0.22633,25.60444 0.24638,38.37901 13.47339,-7.29429 26.84082,-15.22138 40.16639,-22.93461 -5.34878,-3.74698 -11.59785,-6.87569 -17.30267,-10.34609 -7.46011,-4.18787 -14.78722,-8.76593 -22.38922,-12.62699 z"
       id="path5121"
       inkscape:connector-curvature="0" />
    <path
       style="opacity:0.9;fill:#99cc33;fill-opacity:0.82745098;stroke:none;stroke-width:1;stroke-linejoin:miter;stroke-miterlimit:4;stroke-dasharray:none;stroke-opacity:0.82745098"
       d="m 334.7781,553.37354 c -13.39134,7.21786 -26.61883,14.8395 -39.51235,22.90501 3.7847,3.15107 8.65358,5.39064 12.87735,8.101 8.89377,5.08794 17.84662,10.52432 26.76818,15.27752 -0.0577,-15.40956 0.49204,-30.95205 -0.0621,-46.28649 l -0.0424,-0.002 -0.0286,0.005 z"
       id="path5123"
       inkscape:connector-curvature="0" />
    <path
       style="opacity:0.9;fill:#99cc33;fill-opacity:0.82745098;stroke:none;stroke-width:1;stroke-linejoin:miter;stroke-miterlimit:4;stroke-dasharray:none;stroke-opacity:0.82745098"
       d="m 332.59108,505.15552 c -12.42967,7.38902 -25.32498,14.09153 -37.34013,22.12373 6.82571,4.81612 14.553,8.77987 21.78824,13.13933 5.89809,3.22022 11.82274,7.1681 17.76357,9.88603 0.64556,-15.47162 0.24281,-30.97725 0.36105,-46.46209 -0.81532,0.0532 -1.74962,0.9629 -2.57273,1.313 z"
       id="path5125"
       inkscape:connector-curvature="0" />
    <path
       style="opacity:0.9;fill:#99cc33;fill-opacity:0.82745098;stroke:none;stroke-width:1;stroke-linejoin:miter;stroke-miterlimit:4;stroke-dasharray:none;stroke-opacity:0.82745098"
       d="m 293.74953,479.589 c -0.2217,14.91291 -0.43756,29.86249 0.072,44.77126 0.0337,2.42776 2.50764,-0.0694 3.50955,-0.42983 11.88138,-6.9542 24.13933,-13.3441 35.60032,-20.97475 1.57218,-1.39233 -2.27417,-1.79258 -2.86145,-2.68369 -12.11207,-6.83768 -24.135,-14.17865 -36.32044,-20.68299 z"
       id="path5127"
       inkscape:connector-curvature="0" />
    <path
       style="opacity:0.9;fill:#99cc33;fill-opacity:0.82745098;stroke:none;stroke-width:1;stroke-linejoin:miter;stroke-miterlimit:4;stroke-dasharray:none;stroke-opacity:0.82745098"
       d="m 357.48976,539.9101 c -6.56963,3.97508 -13.65816,7.57589 -19.85581,11.91072 12.87003,8.26377 26.37459,15.53556 39.55379,23.30651 0.58692,-15.32685 0.30068,-31.02616 0.14994,-46.49661 -6.60175,3.408 -13.25112,7.58737 -19.84792,11.27938 z"
       id="path5129"
       inkscape:connector-curvature="0" />
    <path
       style="opacity:0.9;fill:#99cc33;fill-opacity:0.82745098;stroke:none;stroke-width:1;stroke-linejoin:miter;stroke-miterlimit:4;stroke-dasharray:none;stroke-opacity:0.82745098"
       d="m 379.67563,529.20386 c -1.23875,2.01084 -0.37571,4.978 -0.72007,7.29888 0.004,12.86652 -0.22952,25.96156 0.10057,38.68378 13.30725,-7.74268 26.78326,-15.22522 39.90201,-23.27297 -8.92261,-5.80152 -18.61572,-10.93641 -27.87952,-16.39245 -3.80424,-2.07555 -7.50136,-4.4716 -11.40299,-6.31724 z"
       id="path5131"
       inkscape:connector-curvature="0" />
    <path
       style="opacity:0.9;fill:#99cc33;fill-opacity:0.82745098;stroke:none;stroke-width:1;stroke-linejoin:miter;stroke-miterlimit:4;stroke-dasharray:none;stroke-opacity:0.82745098"
       d="m 206.80933,627.0397 c -13.23803,7.30659 -26.34995,14.92532 -39.14242,22.97407 6.29838,4.60017 13.559,8.26303 20.29566,12.36536 6.33429,3.49465 12.6524,7.61954 19.04899,10.67282 0.54114,-15.29451 0.53788,-30.65156 0,-45.94615 -0.0231,-0.088 -0.13099,-0.10234 -0.20223,-0.0661 z"
       id="path5133"
       inkscape:connector-curvature="0" />
    <path
       style="opacity:0.9;fill:#99cc33;fill-opacity:0.82745098;stroke:none;stroke-width:1;stroke-linejoin:miter;stroke-miterlimit:4;stroke-dasharray:none;stroke-opacity:0.82745098"
       d="m 166.58376,651.80324 c -0.57608,15.32529 -0.20318,30.69847 -0.31469,46.04184 10.96853,-5.8313 21.91906,-12.4854 32.78455,-18.79339 2.11341,-1.60321 5.25676,-2.557 6.69328,-4.77059 -12.85314,-7.75397 -25.92089,-15.22075 -39.04378,-22.52522 l -0.11936,0.0474 z"
       id="path5135"
       inkscape:connector-curvature="0" />
    <path
       style="opacity:0.9;fill:#99cc33;fill-opacity:0.82745098;stroke:none;stroke-width:1;stroke-linejoin:miter;stroke-miterlimit:4;stroke-dasharray:none;stroke-opacity:0.82745098"
       d="m 123.85154,676.0834 c -0.8634,10.12086 -0.34834,20.48881 -0.51099,30.69719 0.27331,5.09869 -0.48145,10.40523 0.54749,15.39989 2.24416,-0.33153 4.32244,-2.51748 6.50167,-3.39949 11.00921,-6.47016 22.39377,-12.7099 33.11328,-19.43252 -12.98309,-8.09725 -26.23944,-15.91817 -39.65145,-23.26507 z"
       id="path5137"
       inkscape:connector-curvature="0" />
    <path
       style="opacity:0.9;fill:#99cc33;fill-opacity:0.82745098;stroke:none;stroke-width:1;stroke-linejoin:miter;stroke-miterlimit:4;stroke-dasharray:none;stroke-opacity:0.82745098"
       d="m 120.48568,676.7325 c -12.71805,7.28257 -25.588269,14.52211 -37.894529,22.3881 11.626284,7.85167 24.131009,14.45973 36.260479,21.54558 0.91395,0.24092 3.27281,2.7149 2.90365,0.33251 0.35102,-14.97499 0.39296,-30.17773 0.11936,-45.01789 -0.46299,0.25057 -0.92597,0.50113 -1.38896,0.7517 z"
       id="path5139"
       inkscape:connector-curvature="0" />
    <path
       style="opacity:0.9;fill:#ff9900;fill-opacity:0.82745098;stroke:none;stroke-width:1;stroke-linejoin:miter;stroke-miterlimit:4;stroke-dasharray:none;stroke-opacity:0.82745098"
       d="m 209.44224,676.3675 c -1.24542,2.03622 -0.36453,5.04592 -0.70615,7.40143 -0.0155,12.77199 -0.17367,25.55813 0.17543,38.32178 11.62821,-6.14153 23.05729,-13.19557 34.53716,-19.80441 1.613,-1.15781 3.90233,-1.95704 5.19616,-3.31466 -13.04412,-7.56 -26.05305,-15.27275 -39.2026,-22.60414 z"
       id="path5145"
       inkscape:connector-curvature="0" />
    <path
       style="opacity:0.9;fill:#ff9900;fill-opacity:0.82745098;stroke:none;stroke-width:1;stroke-linejoin:miter;stroke-miterlimit:4;stroke-dasharray:none;stroke-opacity:0.82745098"
       d="m 205.33652,677.0097 c -12.52496,7.26051 -25.31732,14.28102 -37.40721,22.16121 9.81102,6.87328 20.58372,12.43747 30.91943,18.53682 2.69412,1.31822 5.4525,3.46896 8.15592,4.33958 0.67372,-15.32197 0.24951,-30.68169 0.37486,-46.01817 -0.61205,-0.0828 -1.41291,0.76315 -2.043,0.98056 z"
       id="path5147"
       inkscape:connector-curvature="0" />
    <path
       style="opacity:0.9;fill:#ff9900;fill-opacity:0.82745098;stroke:none;stroke-width:1;stroke-linejoin:miter;stroke-miterlimit:4;stroke-dasharray:none;stroke-opacity:0.82745098"
       d="m 251.88542,651.94825 c -1.26717,2.08842 -0.37787,5.13298 -0.72185,7.53657 0.0207,12.79459 -0.22658,25.82252 0.10925,38.47075 13.23262,-7.88471 26.78759,-15.2415 39.90398,-23.31046 -9.0512,-5.88487 -18.85907,-11.09286 -28.2521,-16.62007 -3.68508,-1.98491 -7.24569,-4.36105 -11.03928,-6.07679 z"
       id="path5149"
       inkscape:connector-curvature="0" />
    <path
       style="opacity:0.9;fill:#ff9900;fill-opacity:0.82745098;stroke:none;stroke-width:1;stroke-linejoin:miter;stroke-miterlimit:4;stroke-dasharray:none;stroke-opacity:0.82745098"
       d="m 290.18934,628.0173 c -12.51133,7.24095 -25.25025,14.28138 -37.37072,22.08328 11.10468,7.54954 23.10881,13.85473 34.70319,20.67462 1.35871,0.42538 3.14291,2.34975 4.37019,2.13273 0.59871,-15.27895 0.23528,-30.58246 0.34033,-45.87119 -0.61204,-0.0828 -1.41291,0.76315 -2.04299,0.98056 z"
       id="path5151"
       inkscape:connector-curvature="0" />
    <path
       style="opacity:0.9;fill:#ff9900;fill-opacity:0.82745098;stroke:none;stroke-width:1;stroke-linejoin:miter;stroke-miterlimit:4;stroke-dasharray:none;stroke-opacity:0.82745098"
       d="m 315.06336,613.65123 c -6.5694,3.97968 -13.66096,7.57537 -19.85976,11.91862 12.86231,8.27119 26.37786,15.52499 39.55773,23.28974 0.58697,-15.3239 0.30062,-31.02024 0.14995,-46.48774 -6.60175,3.408 -13.25112,7.58738 -19.84792,11.27938 z"
       id="path5153"
       inkscape:connector-curvature="0" />
    <path
       style="opacity:0.9;fill:#ff9900;fill-opacity:0.82745098;stroke:none;stroke-width:1;stroke-linejoin:miter;stroke-miterlimit:4;stroke-dasharray:none;stroke-opacity:0.82745098"
       d="m 337.27487,602.94796 c -1.27476,1.71928 -0.38767,4.53934 -0.74016,6.61626 0.0553,12.90258 -0.39843,25.91627 0.4097,38.75577 12.72805,-7.29962 25.69312,-14.35293 38.06223,-22.28748 1.73685,-0.84298 0.0997,-1.88304 -1.11176,-2.22451 -12.21832,-6.92025 -24.27646,-14.20459 -36.62001,-20.86004 z"
       id="path5155"
       inkscape:connector-curvature="0" />
    <path
       style="opacity:0.9;fill:#ff9900;fill-opacity:0.82745098;stroke:none;stroke-width:1;stroke-linejoin:miter;stroke-miterlimit:4;stroke-dasharray:none;stroke-opacity:0.82745098"
       d="m 379.19621,578.06703 c -0.39517,15.15609 -0.50791,30.38209 0.0986,45.53283 9.73649,-4.93619 19.26932,-10.91481 28.88386,-16.3119 3.56393,-2.17539 7.53346,-4.11662 10.84749,-6.43627 -13.22483,-7.64189 -26.43309,-15.61946 -39.82999,-22.78466 z"
       id="path5157"
       inkscape:connector-curvature="0" />
    <path
       style="opacity:0.9;fill:#ff9900;fill-opacity:0.82745098;stroke:none;stroke-width:1;stroke-linejoin:miter;stroke-miterlimit:4;stroke-dasharray:none;stroke-opacity:0.82745098"
       d="m 419.48985,553.42187 c -13.18083,7.50771 -26.44806,14.95657 -39.1661,23.20688 12.56955,7.84012 25.74513,15.16703 38.70048,22.53607 1.37269,0.82945 0.43964,-2.09196 0.79104,-2.67487 0.20398,-14.33493 0.45593,-28.71076 -0.17942,-43.02664 -0.0312,-0.0504 -0.0949,-0.0656 -0.146,-0.0414 z"
       id="path5161"
       inkscape:connector-curvature="0" />
    <path
       style="opacity:0.9;fill:#ffcc00;fill-opacity:0.82745098;stroke:none;stroke-width:1;stroke-linejoin:miter;stroke-miterlimit:4;stroke-dasharray:none;stroke-opacity:0.82745098"
       d="m 336.47977,553.32816 c 0.0888,15.34209 -0.20839,30.70363 0.25254,46.03395 13.2427,-7.13346 26.3646,-14.96495 39.41371,-22.61104 -2.91311,-2.53287 -6.97251,-4.36081 -10.31588,-6.57666 -9.71958,-5.65982 -19.45537,-11.78572 -29.35037,-16.84625 z"
       id="path5163"
       inkscape:connector-curvature="0" />
    <path
       style="opacity:0.9;fill:#ffcc00;fill-opacity:0.82745098;stroke:none;stroke-width:1;stroke-linejoin:miter;stroke-miterlimit:4;stroke-dasharray:none;stroke-opacity:0.82745098"
       d="m 377.08416,578.02955 c -13.11529,7.33244 -26.25584,14.74096 -39.03983,22.59229 1.69303,2.46099 5.12558,3.51663 7.51695,5.30528 10.49491,6.08477 21.0066,12.54715 31.65112,18.13737 0.57718,-15.29968 0.50947,-30.66968 0.0552,-45.97477 -0.0235,-0.0679 -0.12371,-0.0975 -0.18348,-0.0602 z"
       id="path5165"
       inkscape:connector-curvature="0" />
    <path
       style="opacity:0.9;fill:#ffcc00;fill-opacity:0.82745098;stroke:none;stroke-width:1;stroke-linejoin:miter;stroke-miterlimit:4;stroke-dasharray:none;stroke-opacity:0.82745098"
       d="m 336.93849,504.3624 c -0.85679,14.31429 -0.28067,28.80954 -0.45872,43.18895 -1.17515,4.87019 2.54554,1.34257 4.73713,0.23844 11.64962,-6.8948 23.88376,-13.4776 35.19349,-20.53915 -13.07366,-7.7568 -26.20782,-15.50258 -39.4719,-22.88824 z"
       id="path5167"
       inkscape:connector-curvature="0" />
    <path
       style="opacity:0.9;fill:#ffcc00;fill-opacity:0.82745098;stroke:none;stroke-width:1;stroke-linejoin:miter;stroke-miterlimit:4;stroke-dasharray:none;stroke-opacity:0.82745098"
       d="m 377.2558,479.67679 c -13.38439,7.28642 -26.61933,14.92435 -39.58337,22.92968 4.53885,3.53647 10.10604,6.2049 15.07654,9.3112 8.18495,4.6304 16.39307,9.674 24.58871,13.99826 0.0206,-15.38785 0.33517,-30.78346 0.0661,-46.16712 l -0.10654,-0.076 -0.0414,0.004 z"
       id="path5169"
       inkscape:connector-curvature="0" />
    <path
       style="fill:none;fill-rule:evenodd;stroke:#000000;stroke-width:1px;stroke-linecap:butt;stroke-linejoin:miter;stroke-opacity:1;opacity:0.9"
       d="M 420.53572,502.54077 103.07161,319.25279"
       id="path5171"
       inkscape:connector-curvature="0" />
    <path
       style="fill:none;fill-rule:evenodd;stroke:#000000;stroke-width:1px;stroke-linecap:butt;stroke-linejoin:miter;stroke-opacity:1;opacity:0.9"
       d="M 421.23361,504.35445 695.49033,662.69664"
       id="path5173"
       inkscape:connector-curvature="0" />
    <path
       style="fill:none;fill-rule:evenodd;stroke:#000000;stroke-width:1px;stroke-linecap:butt;stroke-linejoin:miter;stroke-opacity:1;opacity:0.9"
       d="m 293.03571,477.71935 0,-214.64286"
       id="path5175"
       inkscape:connector-curvature="0" />
    <path
       style="fill:none;fill-rule:evenodd;stroke:#000000;stroke-width:1px;stroke-linecap:butt;stroke-linejoin:miter;stroke-opacity:1;opacity:0.9"
       d="m 250.44643,453.34435 0,-228.125"
       id="path5177"
       inkscape:connector-curvature="0" />
    <path
       style="opacity:0.9;fill:#99cc33;fill-opacity:0.82745098;stroke:none;stroke-width:1;stroke-linejoin:miter;stroke-miterlimit:4;stroke-dasharray:none;stroke-opacity:0.82745098"
       d="m 293.55848,626.76207 c 0.31293,15.07175 -0.64296,30.23639 0.55943,45.25669 1.16142,1.62202 3.57328,-2.03526 4.99855,-1.96936 11.35226,-6.66942 23.66107,-13.04601 34.3611,-20.05491 -13.13547,-7.95376 -26.74804,-15.62368 -39.91908,-23.23242 z"
       id="path5179"
       inkscape:connector-curvature="0" />
    <path
       style="opacity:0.9;fill:#99cc33;fill-opacity:0.82745098;stroke:none;stroke-width:1;stroke-linejoin:miter;stroke-miterlimit:4;stroke-dasharray:none;stroke-opacity:0.82745098"
       d="m 333.42873,652.0076 c -12.51103,7.77206 -26.02365,14.17028 -37.88086,22.86691 12.69988,7.93922 25.94581,15.64586 39.10157,22.74135 0.88908,-15.47515 0.54679,-31.29218 0.38365,-46.65178 -0.53479,0.34784 -1.06957,0.69568 -1.60436,1.04352 z"
       id="path5181"
       inkscape:connector-curvature="0" />
    <path
       style="opacity:0.9;fill:#99cc33;fill-opacity:0.82745098;stroke:none;stroke-width:1;stroke-linejoin:miter;stroke-miterlimit:4;stroke-dasharray:none;stroke-opacity:0.82745098"
       d="m 206.86902,725.5888 c -13.20759,6.98119 -26.24807,14.44473 -38.81836,22.50558 9.81072,7.23561 21.1624,12.76884 31.67354,19.13571 3.31753,1.62601 9.04298,7.09648 7.28514,-0.28233 -0.1095,-13.71891 0.70336,-27.8654 -0.14032,-41.35896 z"
       id="path5183"
       inkscape:connector-curvature="0" />
    <path
       style="opacity:0.9;fill:#99cc33;fill-opacity:0.82745098;stroke:none;stroke-width:1;stroke-linejoin:miter;stroke-miterlimit:4;stroke-dasharray:none;stroke-opacity:0.82745098"
       d="m 166.77416,701.16218 c -0.54885,15.00118 -0.49103,30.09084 -0.046,45.09626 12.97031,-7.00521 26.15234,-14.53638 38.66908,-22.25725 -12.4613,-8.18548 -25.36304,-15.86656 -38.51702,-22.88644 l -0.10602,0.0474 z"
       id="path5185"
       inkscape:connector-curvature="0" />
    <path
       style="opacity:0.9;fill:#ffcc00;fill-opacity:0.82745098;stroke:none;stroke-width:1;stroke-linejoin:miter;stroke-miterlimit:4;stroke-dasharray:none;stroke-opacity:0.82745098"
       d="m 208.55848,430.3335 c 0.31293,15.07174 -0.64296,30.23638 0.55943,45.25669 1.1614,1.62199 3.57326,-2.03529 4.99874,-1.96903 11.35157,-6.67191 23.66313,-13.04497 34.36231,-20.05664 -13.13432,-7.95742 -26.74277,-15.63758 -39.92048,-23.23102 z"
       id="path5187"
       inkscape:connector-curvature="0" />
    <path
       style="opacity:0.9;fill:#ffcc00;fill-opacity:0.82745098;stroke:none;stroke-width:1;stroke-linejoin:miter;stroke-miterlimit:4;stroke-dasharray:none;stroke-opacity:0.82745098"
       d="m 230.03727,417.14293 c -6.305,3.92748 -13.25809,7.2662 -18.97042,11.9294 11.98458,8.52684 25.29045,15.18214 37.89899,22.7846 0.60397,-15.01744 0.60182,-30.64497 0,-45.66266 -6.30952,3.64955 -12.61905,7.2991 -18.92857,10.94866 z"
       id="path5189"
       inkscape:connector-curvature="0" />
    <path
       style="opacity:0.9;fill:#ff9900;fill-opacity:0.82745098;stroke:none;stroke-width:1;stroke-linejoin:miter;stroke-miterlimit:4;stroke-dasharray:none;stroke-opacity:0.82745098"
       d="m 379.28671,479.81452 c -1.32777,12.22575 -0.53506,24.79063 -0.60757,37.13707 0.35052,2.70234 -0.33989,6.10316 0.71081,8.51863 13.20791,-7.37219 26.62305,-14.83418 39.29687,-22.89482 -12.94645,-7.85171 -26.0961,-15.58267 -39.40011,-22.76088 z"
       id="path5191"
       inkscape:connector-curvature="0" />
    <path
       style="opacity:0.9;fill:#ff9900;fill-opacity:0.82745098;stroke:none;stroke-width:1;stroke-linejoin:miter;stroke-miterlimit:4;stroke-dasharray:none;stroke-opacity:0.82745098"
       d="m 418.98816,504.70292 c -13.09989,7.1898 -26.09664,14.71276 -38.68861,22.72879 12.62836,7.67932 25.61522,15.40482 38.63421,22.33817 0.87593,-14.95775 0.61054,-30.05137 0.23298,-45.03209 l -0.11161,-0.0516 -0.067,0.0168 z"
       id="path5193"
       inkscape:connector-curvature="0" />
    <path
       style="opacity:0.9;fill:#ff9900;fill-opacity:0.82745098;stroke:none;stroke-width:1;stroke-linejoin:miter;stroke-miterlimit:4;stroke-dasharray:none;stroke-opacity:0.82745098"
       d="m 336.82996,455.43952 c -0.53933,14.57304 -0.72549,29.2684 -0.0251,43.85045 0.59155,2.7918 3.7804,-1.18666 5.14369,-1.27232 11.45631,-6.66038 23.44075,-13.02246 34.41965,-20.14788 -13.10459,-7.57312 -26.25783,-15.29305 -39.53823,-22.43025 z"
       id="path5195"
       inkscape:connector-curvature="0" />
    <path
       style="opacity:0.9;fill:#ffcc00;fill-opacity:0.82745098;stroke:none;stroke-width:1;stroke-linejoin:miter;stroke-miterlimit:4;stroke-dasharray:none;stroke-opacity:1"
       d="m 81.227605,700.42933 c -0.508012,2.45621 -0.17497,5.12175 -0.319899,7.64761 0.01324,12.83572 -0.196088,25.67921 0.159103,38.51015 -0.100869,1.28606 1.216708,-0.0652 1.704213,-0.20622 12.962074,-7.44433 25.921648,-14.89879 38.795108,-22.49361 -0.87143,-0.99386 -2.54043,-1.50385 -3.66723,-2.33548 -12.18732,-7.07283 -24.346493,-14.20953 -36.613586,-21.13527 l -0.05771,0.0128 z"
       id="path4301"
       inkscape:connector-curvature="0" />
    <path
       style="opacity:0.9;fill:#ffcc00;fill-opacity:0.82745098;stroke:none;stroke-width:1;stroke-linejoin:miter;stroke-miterlimit:4;stroke-dasharray:none;stroke-opacity:1"
       d="m 121.96615,725.16376 c -13.34651,7.45209 -26.603876,15.07882 -39.707677,22.95039 -1.144289,0.53932 0.969599,1.02031 1.27009,1.41363 12.787968,7.44425 25.618947,14.81427 38.432157,22.21496 0.3571,-2.71734 0.066,-5.8107 0.17392,-8.67257 0.006,-12.61109 0.14273,-25.22486 -0.01,-37.83439 l -0.12676,-0.0814 -0.0321,0.009 z"
       id="path4303"
       inkscape:connector-curvature="0" />
    <path
       style="fill:none;fill-rule:evenodd;stroke:#000000;stroke-width:1px;stroke-linecap:butt;stroke-linejoin:miter;stroke-opacity:1;opacity:0.9"
       d="M 165.53875,797.36182 580.6277,557.7101"
       id="path4305"
       inkscape:connector-curvature="0" />
    <path
       style="fill:none;fill-rule:evenodd;stroke:#000000;stroke-width:1px;stroke-linecap:butt;stroke-linejoin:miter;stroke-opacity:1;opacity:0.9"
       d="M 207.83888,822.04743 559.38587,619.08168"
       id="path4307"
       inkscape:connector-curvature="0" />
    <path
       style="opacity:0.9;fill:#ff9900;fill-opacity:0.82745098;stroke:none;stroke-width:1;stroke-linejoin:miter;stroke-miterlimit:4;stroke-dasharray:none;stroke-opacity:1"
       d="m 144.6475,712.04118 c -6.52022,3.90396 -13.31804,7.47973 -19.54309,11.80418 12.67807,8.1722 26.12248,15.34309 39.14538,23.03917 0.59237,-15.18164 0.29629,-30.73711 0.14994,-46.06256 -6.56998,3.3881 -13.187,7.54704 -19.75223,11.21921 z"
       id="path4313"
       inkscape:connector-curvature="0" />
    <path
       style="opacity:0.9;fill:#ff9900;fill-opacity:0.82745098;stroke:none;stroke-width:1;stroke-linejoin:miter;stroke-miterlimit:4;stroke-dasharray:none;stroke-opacity:1"
       d="m 123.54183,724.99658 c 0.10001,15.48515 -0.19998,31.20092 0.14994,46.54199 13.24452,-7.82792 26.81406,-15.14447 39.9099,-23.19898 -12.49993,-7.97077 -25.83562,-15.01198 -38.6304,-22.66467 -0.44044,-0.0786 -0.99993,-0.90892 -1.42944,-0.67834 z"
       id="path4315"
       inkscape:connector-curvature="0" />
    <path
       style="opacity:0.9;fill:#ff9900;fill-opacity:0.82745098;stroke:none;stroke-width:1;stroke-linejoin:miter;stroke-miterlimit:4;stroke-dasharray:none;stroke-opacity:1"
       d="m 250.82105,700.18865 c 0.10049,15.67461 -0.20013,31.58048 0.14994,47.11119 13.29759,-7.85181 27.04619,-15.28812 40.10029,-23.34301 -12.93316,-8.61497 -26.86405,-15.69734 -40.09634,-23.85203 l -0.15389,0.0839 z"
       id="path4317"
       inkscape:connector-curvature="0" />
    <path
       style="opacity:0.9;fill:#ff9900;fill-opacity:0.82745098;stroke:none;stroke-width:1;stroke-linejoin:miter;stroke-miterlimit:4;stroke-dasharray:none;stroke-opacity:1"
       d="m 272.21379,736.51764 c -6.58091,3.95319 -13.59287,7.57312 -19.84989,11.85154 13.03337,8.03101 26.45008,15.45069 39.67019,23.17925 0.5862,-15.28679 0.30138,-30.94589 0.14994,-46.37626 -6.64233,3.42998 -13.33303,7.63164 -19.97024,11.34547 z"
       id="path4319"
       inkscape:connector-curvature="0" />
    <path
       style="opacity:0.9;fill:#ff9900;fill-opacity:0.82745098;stroke:none;stroke-width:1;stroke-linejoin:miter;stroke-miterlimit:4;stroke-dasharray:none;stroke-opacity:1"
       d="m 378.9003,627.02461 c -0.42365,15.32385 -0.469,30.71172 0.0454,46.03592 11.40147,-5.91655 22.60357,-12.86574 33.89295,-19.23108 1.20892,-1.51243 8.20661,-2.90719 4.98723,-4.58513 -12.91845,-7.46279 -25.86056,-15.17603 -38.92556,-22.21971 z"
       id="path4321"
       inkscape:connector-curvature="0" />
    <path
       style="opacity:0.9;fill:#ff9900;fill-opacity:0.82745098;stroke:none;stroke-width:1;stroke-linejoin:miter;stroke-miterlimit:4;stroke-dasharray:none;stroke-opacity:1"
       d="m 419.36953,651.87101 c -13.23458,7.2879 -26.43168,14.74995 -39.33182,22.58243 9.69908,6.6212 20.30784,12.10032 30.43674,18.13229 2.99636,1.60353 5.99203,3.69251 8.9888,5.00652 0.0184,-15.21649 0.34154,-30.44119 0.0582,-45.65318 l -0.11542,-0.075 -0.0365,0.007 z"
       id="path4325"
       inkscape:connector-curvature="0" />
    <path
       style="opacity:0.9;fill:#ffcc00;fill-opacity:0.82745098;stroke:none;stroke-width:1;stroke-linejoin:miter;stroke-miterlimit:4;stroke-dasharray:none;stroke-opacity:1"
       d="m 292.10215,676.11467 c -13.34119,7.20317 -26.45042,14.96076 -39.51926,22.58539 1.9337,2.58495 5.57202,3.72369 8.18241,5.62979 10.43655,6.01201 20.94529,12.35231 31.41873,18.01409 0.019,-15.38484 0.33912,-30.77784 0.0612,-46.15825 l -0.10851,-0.075 -0.0345,0.004 z"
       id="path4327"
       inkscape:connector-curvature="0" />
    <path
       style="opacity:0.9;fill:#ffcc00;fill-opacity:0.82745098;stroke:none;stroke-width:1;stroke-linejoin:miter;stroke-miterlimit:4;stroke-dasharray:none;stroke-opacity:1"
       d="m 293.75253,676.00319 c 0.19328,15.0871 -0.40609,30.20991 0.36204,45.27634 0.41879,1.76725 2.44066,-0.77769 3.40783,-0.91438 11.92477,-6.88178 24.08524,-13.56503 35.71683,-20.8325 -4.44406,-3.97242 -10.17065,-6.49488 -15.20222,-9.73008 -8.05942,-4.59994 -16.1763,-9.56922 -24.28448,-13.79938 z"
       id="path4329"
       inkscape:connector-curvature="0" />
    <path
       style="opacity:0.9;fill:#ffcc00;fill-opacity:0.82745098;stroke:none;stroke-width:1;stroke-linejoin:miter;stroke-miterlimit:4;stroke-dasharray:none;stroke-opacity:1"
       d="m 248.21872,701.12975 c -12.63657,7.62349 -25.84963,14.36833 -38.07999,22.63275 -0.58926,1.13904 2.50009,1.34929 2.9543,2.18825 12.17476,6.89596 24.24521,14.39277 36.5403,20.83415 0.68302,-15.49884 0.24731,-31.04562 0.37683,-46.56271 -0.56388,-0.10897 -1.21996,0.70554 -1.79144,0.90756 z"
       id="path4331"
       inkscape:connector-curvature="0" />
    <path
       style="opacity:0.9;fill:#ffcc00;fill-opacity:0.82745098;stroke:none;stroke-width:1;stroke-linejoin:miter;stroke-miterlimit:4;stroke-dasharray:none;stroke-opacity:1"
       d="m 208.39464,724.95416 c 0.13654,15.48686 -0.31721,31.00928 0.38078,46.47491 13.33824,-7.25507 26.59953,-15.18023 39.69189,-23.04411 -5.97135,-4.24564 -12.85399,-7.69752 -19.20567,-11.55436 -6.95311,-3.89984 -13.92166,-8.25488 -20.867,-11.87644 z"
       id="path4333"
       inkscape:connector-curvature="0" />
    <path
       style="opacity:0.9;fill:#ffcc00;fill-opacity:0.82745098;stroke:none;stroke-width:1;stroke-linejoin:miter;stroke-miterlimit:4;stroke-dasharray:none;stroke-opacity:1"
       d="m 336.47488,700.76574 c -0.46181,15.32733 -0.38207,30.71076 -0.0641,46.04382 13.2573,-7.152 26.41761,-15.04289 39.52419,-22.5992 -2.07695,-2.61351 -5.77027,-3.83191 -8.49075,-5.79131 -10.27808,-5.9181 -20.54279,-12.16337 -30.96932,-17.65331 z"
       id="path4335"
       inkscape:connector-curvature="0" />
    <path
       style="opacity:0.9;fill:#ffcc00;fill-opacity:0.82745098;stroke:none;stroke-width:1;stroke-linejoin:miter;stroke-miterlimit:4;stroke-dasharray:none;stroke-opacity:1"
       d="m 357.82027,736.18323 c -6.62823,3.97153 -13.64143,7.60297 -19.98701,11.88212 4.25698,3.82107 9.77433,6.18019 14.58677,9.29178 8.24095,4.66713 16.47266,9.77482 24.74308,14.13409 0.12902,-15.44836 0.28246,-31.12759 -0.0237,-46.43348 -6.43973,3.7085 -12.87945,7.41699 -19.31917,11.12549 z"
       id="path4337"
       inkscape:connector-curvature="0" />
    <path
       style="opacity:0.9;fill:#ffcc00;fill-opacity:0.82745098;stroke:none;stroke-width:1;stroke-linejoin:miter;stroke-miterlimit:4;stroke-dasharray:none;stroke-opacity:1"
       d="m 336.17894,651.36396 c 0.0974,15.48265 -0.19473,31.18431 0.14599,46.53015 13.40858,-7.48554 26.79669,-15.18844 39.81126,-23.25521 -9.62209,-6.51963 -20.16224,-11.74999 -30.13399,-17.77458 -3.27051,-1.77004 -6.55447,-4.02134 -9.82326,-5.50036 z"
       id="path4339"
       inkscape:connector-curvature="0" />
    <path
       style="opacity:0.9;fill:#ffcc00;fill-opacity:0.82745098;stroke:none;stroke-width:1;stroke-linejoin:miter;stroke-miterlimit:4;stroke-dasharray:none;stroke-opacity:1"
       d="m 376.68368,627.06505 c -13.26754,7.60641 -26.81924,15.18368 -39.77672,23.03917 13.32433,7.63088 26.51278,15.6272 39.96514,22.96026 0.69793,-14.71097 0.45663,-29.54717 0.14403,-44.29775 -0.17987,-0.41098 0.16826,-1.51054 -0.33245,-1.70168 z"
       id="path4341"
       inkscape:connector-curvature="0" />
    <path
       style="opacity:0.9;fill:#99cc33;fill-opacity:0.82745098;stroke:none;stroke-width:1;stroke-linejoin:miter;stroke-miterlimit:4;stroke-dasharray:none;stroke-opacity:1"
       d="m 334.25037,700.80619 c -13.27165,7.60022 -26.82388,15.17791 -39.78265,23.03226 13.32867,7.63309 26.52144,15.63162 39.97798,22.96716 0.69354,-14.7232 0.46422,-29.57156 0.14205,-44.33425 -0.17494,-0.40937 0.16858,-1.48994 -0.33738,-1.66517 z"
       id="path4343"
       inkscape:connector-curvature="0" />
    <path
       style="opacity:0.9;fill:#99cc33;fill-opacity:0.82745098;stroke:none;stroke-width:1;stroke-linejoin:miter;stroke-miterlimit:4;stroke-dasharray:none;stroke-opacity:1"
       d="m 293.75253,725.10509 c 0.10003,15.47889 -0.19999,31.18844 0.14994,46.52325 13.29216,-7.77112 26.79047,-15.21598 39.90399,-23.27593 -6.18425,-4.33698 -13.2974,-7.79353 -19.84483,-11.76065 -6.73843,-3.76308 -13.47767,-8.00208 -20.2091,-11.48667 z"
       id="path4345"
       inkscape:connector-curvature="0" />
    <path
       style="opacity:0.9;fill:#ff9900;fill-opacity:0.82745098;stroke:none;stroke-width:1;stroke-linejoin:miter;stroke-miterlimit:4;stroke-dasharray:none;stroke-opacity:1"
       d="m 81.115419,602.26305 c 0.18331,15.06929 -0.387878,30.17032 0.354146,45.22109 0.328387,1.87102 2.431286,-0.7023 3.3921,-0.85018 11.931346,-6.87336 24.061755,-13.56233 35.722705,-20.81088 -2.70684,-2.92866 -6.84289,-4.46925 -10.15162,-6.7215 -9.74636,-5.59163 -19.599351,-11.48791 -29.317331,-16.83853 z"
       id="path4347"
       inkscape:connector-curvature="0" />
    <path
       style="opacity:0.9;fill:#99cc33;fill-opacity:0.82745098;stroke:none;stroke-width:1;stroke-linejoin:miter;stroke-miterlimit:4;stroke-dasharray:none;stroke-opacity:1"
       d="m 374.70284,677.35368 c -12.35544,7.30727 -25.11711,14.03729 -37.05405,21.99153 9.52244,6.12589 19.80804,11.65374 29.67837,17.44702 3.17959,1.62723 6.41046,4.0193 9.60117,5.19855 0.64593,-15.30072 0.24238,-30.63598 0.36105,-45.9501 -0.81964,0.0559 -1.75847,0.96177 -2.58654,1.313 z"
       id="path4349"
       inkscape:connector-curvature="0" />
    <path
       style="opacity:0.9;fill:#99cc33;fill-opacity:0.82745098;stroke:none;stroke-width:1;stroke-linejoin:miter;stroke-miterlimit:4;stroke-dasharray:none;stroke-opacity:1"
       d="m 379.07195,676.05548 c -0.86762,14.38779 -0.28774,28.95752 -0.46661,43.41091 -1.284,5.05145 2.43579,1.80146 4.76138,0.50811 11.76589,-6.90073 23.76919,-13.43448 35.30833,-20.69834 -10.32066,-6.67902 -21.36246,-12.69329 -32.02393,-19.00057 -2.52502,-1.38963 -4.98914,-2.99337 -7.57917,-4.22011 z"
       id="path4351"
       inkscape:connector-curvature="0" />
  </g>
</svg>
